<?xml version="1.0" standalone="no"?><!DOCTYPE svg PUBLIC "-//W3C//DTD SVG 1.1//EN" "http://www.w3.org/Graphics/SVG/1.1/DTD/svg11.dtd"><svg class="icon" height="512" viewBox="0 0 1024 1024" version="1.1" xmlns="http://www.w3.org/2000/svg"><path d="M341.600996 938.669724a42.665138 42.665138 0 0 1-42.665138-42.665137v-85.330276a42.665138 42.665138 0 1 1 85.330276 0v85.330276a42.665138 42.665138 0 0 1-42.665138 42.665137zM341.600996 682.678897a42.665138 42.665138 0 0 1-42.665138-42.665137v-85.330276a42.665138 42.665138 0 0 1 85.330276 0v85.330276a42.665138 42.665138 0 0 1-42.665138 42.665137zM682.922099 938.669724a42.665138 42.665138 0 0 1-42.665138-42.665137v-85.330276a42.665138 42.665138 0 1 1 85.330275 0v85.330276a42.665138 42.665138 0 0 1-42.665137 42.665137zM682.922099 682.678897a42.665138 42.665138 0 0 1-42.665138-42.665137v-85.330276a42.665138 42.665138 0 1 1 85.330275 0v85.330276a42.665138 42.665138 0 0 1-42.665137 42.665137zM512.261547 1024a42.665138 42.665138 0 0 1-42.665138-42.665138v-85.330275a42.665138 42.665138 0 1 1 85.330276 0v85.330275a42.665138 42.665138 0 0 1-42.665138 42.665138zM512.261547 768.009173a42.665138 42.665138 0 0 1-42.665138-42.665138v-85.330275a42.665138 42.665138 0 1 1 85.330276 0v85.330275a42.665138 42.665138 0 0 1-42.665138 42.665138z" fill="333333" /><path d="M853.625315 750.089815a42.665138 42.665138 0 0 1-17.151385-81.746404 169.721918 169.721918 0 0 0 90.492757-94.204624A170.745882 170.745882 0 0 0 768.209709 341.357795H714.494301a42.665138 42.665138 0 0 1-41.299854-31.998854c-41.214523-159.396955-204.45134-255.649506-363.89096-214.477648-159.396955 41.171858-255.649506 204.36601-214.477648 363.805631a300.021249 300.021249 0 0 0 102.737652 158.628982 42.622473 42.622473 0 1 1-53.246092 66.642945A386.076832 386.076832 0 0 1 12.226132 479.976827C-40.721304 275.013505 83.007596 65.186357 288.013583 12.238921 482.182625-37.807285 680.575516 70.348839 746.023838 256.027519H768.252374a256.076157 256.076157 0 0 1 234.231607 153.29584 254.284221 254.284221 0 0 1 3.925193 195.918313 254.369552 254.369552 0 0 1-135.717804 141.306937 42.366482 42.366482 0 0 1-17.066055 3.541206z" fill="333333" /></svg>